<svg width="239" height="47" viewBox="0 0 239 47" fill="none" xmlns="http://www.w3.org/2000/svg">
<g clip-path="url(#clip0_5_28)">
<path d="M53.2478 34.6332C53.2478 41.2859 47.8553 46.6784 41.2025 46.6784C34.8368 46.6784 29.6236 41.7402 29.1883 35.4844V28.0473C29.1883 26.1845 28.4327 24.501 27.2131 23.279C25.9935 22.0594 24.31 21.3037 22.4471 21.3037C18.7214 21.3037 15.7035 24.324 15.7035 28.0473V39.0452C15.7035 43.2611 12.2862 46.6784 8.07264 46.6784C3.85671 46.6784 0.439453 43.2611 0.439453 39.0452C0.439453 36.7041 1.49404 34.6092 3.15364 33.2103C3.24452 33.1385 3.333 33.0668 3.41909 32.9951C7.79046 29.3889 10.5741 23.9318 10.5741 17.8243C10.5741 16.0953 10.3517 14.4214 9.93076 12.824C9.85426 12.5251 9.76814 12.2285 9.67485 11.9367C9.50506 11.2217 9.4142 10.4732 9.4142 9.70564C9.4142 4.39441 13.7211 0.0899658 19.0323 0.0899658C23.5352 0.0899658 27.3159 3.18438 28.3609 7.36448C28.3872 7.49602 28.4184 7.6275 28.4494 7.75904C28.4494 7.76147 28.4494 7.76384 28.4518 7.76621C30.2382 15.2296 35.9057 21.1004 43.2543 22.7624C43.5102 22.8222 43.7685 22.8748 44.0291 22.9226C49.3188 24.1924 53.2478 28.9537 53.2478 34.6332Z" fill="white"/>
<path d="M55.2538 6.42785C55.2538 9.9001 52.4368 12.7147 48.9645 12.7147C45.4923 12.7147 42.6753 9.9001 42.6753 6.42785C42.6753 2.95318 45.4923 0.13855 48.9645 0.13855C52.4368 0.13855 55.2538 2.95318 55.2538 6.42785Z" fill="white"/>
</g>
<g clip-path="url(#clip1_5_28)">
<path d="M74.3203 46.3755V31.8167C74.3203 23.7761 80.8385 17.2578 88.8791 17.2578C96.9198 17.2578 103.438 23.7761 103.438 31.8167V46.3755H97.6145V31.8167C97.6145 26.9923 93.7035 23.0814 88.8791 23.0814C84.0548 23.0814 80.1439 26.9923 80.1439 31.8167V46.3755H74.3203Z" fill="white"/>
<path d="M173.193 32.0609V31.2107C173.193 23.17 179.711 16.6519 187.752 16.6519C195.793 16.6519 202.311 23.17 202.311 31.2107V31.6879H196.487V31.2107C196.487 26.3863 192.576 22.4754 187.752 22.4754C182.927 22.4754 179.016 26.3863 179.016 31.2107V32.0609H173.193Z" fill="white"/>
<path d="M202.311 30.9662V31.8164C202.311 39.857 195.793 46.3752 187.752 46.3752C179.711 46.3752 173.193 39.857 173.193 31.8164V30.9662H179.016V31.8164C179.016 36.6408 182.927 40.5517 187.752 40.5517C192.576 40.5517 196.487 36.6408 196.487 31.8164V30.9662H202.311Z" fill="white"/>
<path d="M205.296 17.5609V23.3844H222.512V17.5609H205.296Z" fill="white"/>
<path d="M222.512 0.0899658C216.08 0.0899658 210.865 5.30455 210.865 11.737V46.6783H216.688V11.737C216.688 8.5208 219.296 5.9135 222.512 5.9135V0.0899658Z" fill="white"/>
<path d="M140.97 16.955H148.291L170.789 46.6783H163.468L140.97 16.955Z" fill="white"/>
<path d="M170.789 16.955H163.468L140.97 46.6783H148.291L170.789 16.955Z" fill="white"/>
<path fill-rule="evenodd" clip-rule="evenodd" d="M232.737 9.36707H226.914V17.5608V23.3843V35.0313C226.914 41.4638 232.128 46.6784 238.561 46.6784V40.8549C235.344 40.8549 232.737 38.2476 232.737 35.0313V23.3843H238.561V17.5608H232.737V9.36707Z" fill="white"/>
<path fill-rule="evenodd" clip-rule="evenodd" d="M109.134 32.1064V32.3638H109.136C109.274 40.2859 115.738 46.678 123.693 46.678C129.688 46.678 135.072 43.0091 137.264 37.4297L137.342 37.2293L132.811 35.5434C131.345 38.7773 128.122 40.8545 124.571 40.8545H123.693C121.877 40.8545 120.189 40.2981 118.792 39.3469L131.575 29.9929L137.123 25.882C134.921 20.6378 129.737 16.9547 123.693 16.9547C115.652 16.9547 109.134 23.473 109.134 31.5136V32.1064ZM129.978 25.447L115.788 35.8304C115.256 34.7012 114.958 33.4403 114.958 32.111V31.5136C114.958 26.6892 118.869 22.7783 123.693 22.7783C126.161 22.7783 128.39 23.8015 129.978 25.447Z" fill="white"/>
</g>
<defs>
<clipPath id="clip0_5_28">
<rect width="55.341" height="46.827" fill="white"/>
</clipPath>
<clipPath id="clip1_5_28">
<rect width="164.807" height="46.827" fill="white" transform="translate(74.1934)"/>
</clipPath>
</defs>
</svg>
